<svg width="1512" height="826" viewBox="0 0 1512 826" fill="none" xmlns="http://www.w3.org/2000/svg">
<g clip-path="url(#clip0_743_1095)">
<rect width="1512" height="826" fill="#0B0A0A"/>
<g opacity="0.6">
<rect x="-34" y="291" width="42" height="42" rx="3" fill="#00B4D8" fill-opacity="0.08"/>
<rect x="-34" y="517" width="42" height="42" rx="3" fill="#00B4D8" fill-opacity="0.08"/>
<line x1="97.25" y1="268" x2="97.25" y2="414" stroke="white" stroke-opacity="0.35" stroke-width="0.5" stroke-dasharray="7 7"/>
<rect x="76" y="429" width="42" height="42" rx="3" fill="#00B4D8" fill-opacity="0.08"/>
<line x1="97.25" y1="494" x2="97.25" y2="640" stroke="white" stroke-opacity="0.35" stroke-width="0.5" stroke-dasharray="7 7"/>
<rect x="76" y="655" width="42" height="42" rx="3" fill="#00B4D8" fill-opacity="0.08"/>
<line x1="191.25" y1="130" x2="191.25" y2="276" stroke="white" stroke-opacity="0.35" stroke-width="0.5" stroke-dasharray="7 7"/>
<rect x="170" y="291" width="42" height="42" rx="3" fill="#00B4D8" fill-opacity="0.08"/>
<line x1="191.25" y1="356" x2="191.25" y2="502" stroke="white" stroke-opacity="0.35" stroke-width="0.5" stroke-dasharray="7 7"/>
<rect x="170" y="517" width="42" height="42" rx="3" fill="#00B4D8" fill-opacity="0.08"/>
<line x1="301.25" y1="268" x2="301.25" y2="414" stroke="white" stroke-opacity="0.35" stroke-width="0.5" stroke-dasharray="7 7"/>
<rect x="280" y="429" width="42" height="42" rx="3" fill="#00B4D8" fill-opacity="0.08"/>
<line x1="301.25" y1="494" x2="301.25" y2="640" stroke="white" stroke-opacity="0.35" stroke-width="0.5" stroke-dasharray="7 7"/>
<rect x="280" y="655" width="42" height="42" rx="3" fill="#00B4D8" fill-opacity="0.08"/>
<line x1="395.25" y1="130" x2="395.25" y2="276" stroke="white" stroke-opacity="0.35" stroke-width="0.5" stroke-dasharray="7 7"/>
<rect x="374" y="291" width="42" height="42" rx="3" fill="#00B4D8" fill-opacity="0.08"/>
<line x1="395.25" y1="356" x2="395.25" y2="502" stroke="white" stroke-opacity="0.35" stroke-width="0.5" stroke-dasharray="7 7"/>
<rect x="374" y="517" width="42" height="42" rx="3" fill="#00B4D8" fill-opacity="0.08"/>
<line x1="505.25" y1="268" x2="505.25" y2="414" stroke="white" stroke-opacity="0.35" stroke-width="0.5" stroke-dasharray="7 7"/>
<rect x="484" y="429" width="42" height="42" rx="3" fill="#00B4D8" fill-opacity="0.08"/>
<line x1="505.25" y1="494" x2="505.25" y2="640" stroke="white" stroke-opacity="0.35" stroke-width="0.5" stroke-dasharray="7 7"/>
<rect x="484" y="655" width="42" height="42" rx="3" fill="#00B4D8" fill-opacity="0.08"/>
<line x1="599.25" y1="130" x2="599.25" y2="276" stroke="white" stroke-opacity="0.35" stroke-width="0.5" stroke-dasharray="7 7"/>
<rect x="578" y="291" width="42" height="42" rx="3" fill="#00B4D8" fill-opacity="0.08"/>
<line x1="599.25" y1="356" x2="599.25" y2="502" stroke="white" stroke-opacity="0.35" stroke-width="0.5" stroke-dasharray="7 7"/>
<rect x="578" y="517" width="42" height="42" rx="3" fill="#00B4D8" fill-opacity="0.08"/>
<line x1="709.25" y1="268" x2="709.25" y2="414" stroke="white" stroke-opacity="0.35" stroke-width="0.5" stroke-dasharray="7 7"/>
<rect x="688" y="429" width="42" height="42" rx="3" fill="#00B4D8" fill-opacity="0.08"/>
<line x1="709.25" y1="494" x2="709.25" y2="640" stroke="white" stroke-opacity="0.35" stroke-width="0.5" stroke-dasharray="7 7"/>
<rect x="688" y="655" width="42" height="42" rx="3" fill="#00B4D8" fill-opacity="0.08"/>
<line x1="803.25" y1="130" x2="803.25" y2="276" stroke="white" stroke-opacity="0.35" stroke-width="0.5" stroke-dasharray="7 7"/>
<rect x="782" y="291" width="42" height="42" rx="3" fill="#00B4D8" fill-opacity="0.08"/>
<line x1="803.25" y1="356" x2="803.25" y2="502" stroke="white" stroke-opacity="0.35" stroke-width="0.5" stroke-dasharray="7 7"/>
<rect x="782" y="517" width="42" height="42" rx="3" fill="#00B4D8" fill-opacity="0.08"/>
<line x1="913.25" y1="268" x2="913.25" y2="414" stroke="white" stroke-opacity="0.35" stroke-width="0.5" stroke-dasharray="7 7"/>
<rect x="892" y="429" width="42" height="42" rx="3" fill="#00B4D8" fill-opacity="0.08"/>
<line x1="913.25" y1="494" x2="913.25" y2="640" stroke="white" stroke-opacity="0.35" stroke-width="0.5" stroke-dasharray="7 7"/>
<rect x="892" y="655" width="42" height="42" rx="3" fill="#00B4D8" fill-opacity="0.08"/>
<line x1="1007.25" y1="130" x2="1007.25" y2="276" stroke="white" stroke-opacity="0.35" stroke-width="0.5" stroke-dasharray="7 7"/>
<rect x="986" y="291" width="42" height="42" rx="3" fill="#00B4D8" fill-opacity="0.08"/>
<line x1="1007.25" y1="356" x2="1007.25" y2="502" stroke="white" stroke-opacity="0.35" stroke-width="0.5" stroke-dasharray="7 7"/>
<rect x="986" y="517" width="42" height="42" rx="3" fill="#00B4D8" fill-opacity="0.08"/>
<line x1="1117.25" y1="268" x2="1117.25" y2="414" stroke="white" stroke-opacity="0.35" stroke-width="0.5" stroke-dasharray="7 7"/>
<rect x="1096" y="429" width="42" height="42" rx="3" fill="#00B4D8" fill-opacity="0.08"/>
<line x1="1117.25" y1="494" x2="1117.25" y2="640" stroke="white" stroke-opacity="0.35" stroke-width="0.5" stroke-dasharray="7 7"/>
<rect x="1096" y="655" width="42" height="42" rx="3" fill="#00B4D8" fill-opacity="0.08"/>
<line x1="1211.25" y1="130" x2="1211.25" y2="276" stroke="white" stroke-opacity="0.35" stroke-width="0.5" stroke-dasharray="7 7"/>
<rect x="1190" y="291" width="42" height="42" rx="3" fill="#00B4D8" fill-opacity="0.08"/>
<line x1="1211.25" y1="356" x2="1211.25" y2="502" stroke="white" stroke-opacity="0.35" stroke-width="0.5" stroke-dasharray="7 7"/>
<rect x="1190" y="517" width="42" height="42" rx="3" fill="#00B4D8" fill-opacity="0.08"/>
<line x1="1321.25" y1="268" x2="1321.25" y2="414" stroke="white" stroke-opacity="0.35" stroke-width="0.5" stroke-dasharray="7 7"/>
<rect x="1300" y="429" width="42" height="42" rx="3" fill="#00B4D8" fill-opacity="0.08"/>
<line x1="1321.25" y1="494" x2="1321.25" y2="640" stroke="white" stroke-opacity="0.35" stroke-width="0.5" stroke-dasharray="7 7"/>
<rect x="1300" y="655" width="42" height="42" rx="3" fill="#00B4D8" fill-opacity="0.08"/>
<line x1="1415.25" y1="130" x2="1415.25" y2="276" stroke="white" stroke-opacity="0.35" stroke-width="0.5" stroke-dasharray="7 7"/>
<rect x="1394" y="291" width="42" height="42" rx="3" fill="#00B4D8" fill-opacity="0.08"/>
<line x1="1415.25" y1="356" x2="1415.25" y2="502" stroke="white" stroke-opacity="0.35" stroke-width="0.5" stroke-dasharray="7 7"/>
<rect x="1394" y="517" width="42" height="42" rx="3" fill="#00B4D8" fill-opacity="0.08"/>
<rect x="1504" y="429" width="42" height="42" rx="3" fill="#00B4D8" fill-opacity="0.08"/>
<rect x="1504" y="655" width="42" height="42" rx="3" fill="#00B4D8" fill-opacity="0.08"/>
</g>
<g filter="url(#filter0_f_743_1095)">
<ellipse cx="1261.5" cy="323.5" rx="250.5" ry="152.5" fill="#7D73C3" fill-opacity="0.62"/>
</g>
<g filter="url(#filter1_f_743_1095)">
<ellipse cx="250.5" cy="673.5" rx="250.5" ry="152.5" fill="#7D73C3" fill-opacity="0.62"/>
</g>
</g>
<defs>
<filter id="filter0_f_743_1095" x="611" y="-229" width="1301" height="1105" filterUnits="userSpaceOnUse" color-interpolation-filters="sRGB">
<feFlood flood-opacity="0" result="BackgroundImageFix"/>
<feBlend mode="normal" in="SourceGraphic" in2="BackgroundImageFix" result="shape"/>
<feGaussianBlur stdDeviation="200" result="effect1_foregroundBlur_743_1095"/>
</filter>
<filter id="filter1_f_743_1095" x="-400" y="121" width="1301" height="1105" filterUnits="userSpaceOnUse" color-interpolation-filters="sRGB">
<feFlood flood-opacity="0" result="BackgroundImageFix"/>
<feBlend mode="normal" in="SourceGraphic" in2="BackgroundImageFix" result="shape"/>
<feGaussianBlur stdDeviation="200" result="effect1_foregroundBlur_743_1095"/>
</filter>
<clipPath id="clip0_743_1095">
<rect width="1512" height="826" fill="white"/>
</clipPath>
</defs>
</svg>
