<svg width="184" height="43" viewBox="0 0 184 43" fill="none" xmlns="http://www.w3.org/2000/svg">
<path d="M171.924 0.25V30.2353H157.206V11.7159H145.13V23.7493C145.13 28.7805 148.825 32.9604 153.656 33.769C154.469 38.5745 158.669 42.25 163.728 42.25H165.402C170.46 42.25 174.661 38.5745 175.474 33.769C180.305 32.9604 184 28.7822 184 23.7493V0.25H171.924ZM148.832 23.7476V15.3982H153.503V29.9687C150.807 29.1737 148.832 26.6846 148.832 23.7476ZM163.726 38.5642C160.774 38.5642 158.272 36.6017 157.473 33.9194H171.656C170.855 36.6017 168.354 38.5642 165.402 38.5642H163.726ZM180.295 23.7476C180.295 26.6846 178.322 29.1737 175.624 29.9687V3.93406H180.295V23.7493V23.7476Z" fill="#00B4D8"/>
<path d="M40.6571 11.7022C37.2286 11.7022 34.2538 12.9314 31.8169 15.3555C29.3904 17.7694 28.1599 20.7218 28.1599 24.134C28.1599 27.5462 29.3904 30.4986 31.8169 32.9125C34.2521 35.3366 37.2269 36.5641 40.6571 36.5641C44.0873 36.5641 47.0569 35.3349 49.48 32.9142C51.9169 30.5003 53.1525 27.5462 53.1525 24.134C53.1525 20.7218 51.9169 17.7694 49.4817 15.3572C47.0552 12.9331 44.0856 11.7039 40.6571 11.7039V11.7022ZM40.6571 33.1091C38.1411 33.1091 36.0531 32.2492 34.2762 30.4798C32.4975 28.7104 31.6331 26.6351 31.6331 24.1323C31.6331 21.6295 32.4975 19.5541 34.2762 17.7848C36.0548 16.0154 38.1411 15.1555 40.6571 15.1555C43.173 15.1555 45.2593 16.0154 47.038 17.7848C48.8167 19.5541 49.6811 21.6312 49.6811 24.1323C49.6811 26.6333 48.8167 28.7104 47.038 30.4798C45.2593 32.2492 43.173 33.1091 40.6571 33.1091Z" fill="#7D73C3"/>
<path d="M74.3816 25.8572C74.3816 27.9052 73.6701 29.6028 72.2059 31.0508C70.752 32.4971 69.049 33.1997 67.0005 33.1997C64.952 33.1997 63.2335 32.4971 61.7796 31.0508C60.3257 29.6045 59.6194 27.9069 59.6194 25.8572V12.5108H56.1462V25.8555C56.1462 28.8181 57.2134 31.3876 59.3221 33.4954C61.4393 35.5896 64.0205 36.6512 67.0005 36.6512C69.9804 36.6512 72.5462 35.5896 74.6669 33.492C76.7721 31.3876 77.8393 28.8181 77.8393 25.8555V12.5108H74.3816V25.8572Z" fill="#7D73C3"/>
<path d="M112.909 6.51547H109.438V35.7247H112.909V6.51547Z" fill="#7D73C3"/>
<path d="M141.052 25.6196L141.129 24.1323C141.129 23.8075 141.109 23.4245 141.066 22.9852C140.775 19.8311 139.43 17.1386 137.07 14.9828C134.697 12.8049 131.86 11.7005 128.634 11.7005C125.206 11.7005 122.231 12.9297 119.794 15.3538C117.367 17.7677 116.137 20.72 116.137 24.1323C116.137 27.5445 117.367 30.4969 119.794 32.9108C122.229 35.3349 125.204 36.5624 128.634 36.5624C131.279 36.5624 133.707 35.7845 135.854 34.2511C137.737 32.9091 139.12 31.1534 140.028 29.066H136.141C135.486 30.0593 134.654 30.914 133.63 31.5978C132.121 32.6013 130.44 33.1091 128.634 33.1091C126.219 33.1091 124.19 32.3073 122.432 30.6593C120.928 29.2353 120.041 27.5787 119.739 25.6196C119.455 23.51 119.821 22.1663 119.821 22.1663C120.208 20.332 121.117 18.7883 122.581 17.4719C124.314 15.9145 126.293 15.1572 128.634 15.1572C130.975 15.1572 132.946 15.9145 134.685 17.4719C136.142 18.7883 137.05 20.332 137.443 22.168H122.882V25.6213H141.052V25.6196Z" fill="#7D73C3"/>
<path d="M21.5195 6.52914V24.1323C21.5195 26.6351 20.6551 28.7104 18.8764 30.4798C17.0977 32.2492 15.0114 33.1091 12.4955 33.1091C9.97953 33.1091 7.89151 32.2492 6.11454 30.4798C4.33586 28.7104 3.47144 26.6351 3.47144 24.1323C3.47144 21.6295 4.33586 19.5541 6.11454 17.7848C7.89323 16.0154 9.97953 15.1555 12.4955 15.1555C12.614 15.1555 12.7206 15.1828 19.3455 15.1863V11.7244C12.7223 11.721 12.6106 11.7022 12.4955 11.7022C9.06699 11.7022 6.0922 12.9314 3.65532 15.3555C1.23047 17.7677 0 20.7218 0 24.1323C0 27.5428 1.23047 30.5003 3.65876 32.9262C6.09392 35.3383 9.0687 36.5624 12.4972 36.5624C15.9257 36.5624 18.8953 35.3383 21.3219 32.9262C23.7587 30.502 24.9944 27.5445 24.9944 24.1323V6.52914H21.5195Z" fill="#7D73C3"/>
<path d="M84.1515 6.52914V24.1306C84.1515 26.6333 85.0159 28.7087 86.7946 30.4781C88.5732 32.2475 90.6595 33.1074 93.1755 33.1074C95.6914 33.1074 97.7794 32.2475 99.5564 30.4781C101.335 28.7087 102.2 26.6333 102.2 24.1306C102.2 21.6278 101.335 19.5524 99.5564 17.7831C97.7777 16.0137 95.6914 15.1538 93.1755 15.1538C93.0569 15.1538 92.9504 15.1811 86.3254 15.1845V11.7227C92.9486 11.7193 93.0603 11.7005 93.1755 11.7005C96.604 11.7005 99.5787 12.9297 102.016 15.3538C104.442 17.7677 105.673 20.72 105.673 24.1323C105.673 27.5428 104.442 30.5003 102.014 32.9262C99.5787 35.3383 96.604 36.5624 93.1755 36.5624C89.7453 36.5624 86.7774 35.3383 84.3508 32.9262C81.9139 30.502 80.6783 27.5445 80.6783 24.1323V6.52914H84.1515Z" fill="#7D73C3"/>
</svg>
