<svg width="255" height="49" viewBox="0 0 255 49" fill="none" xmlns="http://www.w3.org/2000/svg">
<path d="M198.799 0V34.855H181.781V13.328H167.817V27.3157C167.817 33.1639 172.089 38.0226 177.675 38.9625C178.615 44.5484 183.472 48.8208 189.322 48.8208H191.257C197.106 48.8208 201.964 44.5484 202.904 38.9625C208.49 38.0226 212.763 33.1659 212.763 27.3157V0H198.799ZM172.097 27.3137V17.6083H177.498V34.545C174.38 33.621 172.097 30.7276 172.097 27.3137ZM189.32 44.5365C185.906 44.5365 183.013 42.2552 182.089 39.1374H198.489C197.563 42.2552 194.671 44.5365 191.257 44.5365H189.32ZM208.478 27.3137C208.478 30.7276 206.197 33.621 203.077 34.545V4.28236H208.478V27.3157V27.3137Z" fill="#00B4D8"/>
<path d="M47.0125 13.3121C43.0481 13.3121 39.6083 14.7408 36.7905 17.5587C33.9846 20.3645 32.5618 23.7964 32.5618 27.7628C32.5618 31.7292 33.9846 35.161 36.7905 37.9669C39.6063 40.7847 43.0461 42.2115 47.0125 42.2115C50.9789 42.2115 54.4127 40.7827 57.2147 37.9689C60.0325 35.163 61.4612 31.7292 61.4612 27.7628C61.4612 23.7964 60.0325 20.3645 57.2166 17.5606C54.4108 14.7428 50.9769 13.3141 47.0125 13.3141V13.3121ZM47.0125 38.1954C44.1033 38.1954 41.6889 37.1959 39.6341 35.1392C37.5774 33.0824 36.5779 30.67 36.5779 27.7608C36.5779 24.8516 37.5774 22.4391 39.6341 20.3824C41.6909 18.3257 44.1033 17.3262 47.0125 17.3262C49.9217 17.3262 52.3342 18.3257 54.3909 20.3824C56.4476 22.4391 57.4472 24.8536 57.4472 27.7608C57.4472 30.668 56.4476 33.0824 54.3909 35.1392C52.3342 37.1959 49.9217 38.1954 47.0125 38.1954Z" fill="#7D73C3"/>
<path d="M86.0088 29.7658C86.0088 32.1465 85.1861 34.1197 83.493 35.8029C81.8119 37.484 79.8426 38.3008 77.4739 38.3008C75.1052 38.3008 73.118 37.484 71.4368 35.8029C69.7557 34.1217 68.939 32.1485 68.939 29.7658V14.252H64.9229V29.7639C64.9229 33.2076 66.1569 36.1944 68.5952 38.6445C71.0434 41.0788 74.0281 42.3129 77.4739 42.3129C80.9196 42.3129 83.8865 41.0788 86.3386 38.6406C88.7729 36.1944 90.007 33.2076 90.007 29.7639V14.252H86.0088V29.7658Z" fill="#7D73C3"/>
<path d="M130.559 7.28299H126.545V41.2358H130.559V7.28299Z" fill="#7D73C3"/>
<path d="M163.101 29.4896L163.191 27.7608C163.191 27.3832 163.167 26.9381 163.117 26.4274C162.781 22.7611 161.225 19.6313 158.497 17.1254C155.753 14.5938 152.472 13.3101 148.742 13.3101C144.777 13.3101 141.338 14.7389 138.52 17.5567C135.714 20.3626 134.291 23.7944 134.291 27.7608C134.291 31.7272 135.714 35.159 138.52 37.9649C141.336 40.7827 144.775 42.2095 148.742 42.2095C151.8 42.2095 154.608 41.3054 157.09 39.5229C159.268 37.9629 160.868 35.9221 161.917 33.4958H157.422C156.665 34.6503 155.703 35.6439 154.519 36.4388C152.774 37.6052 150.83 38.1954 148.742 38.1954C145.95 38.1954 143.603 37.2635 141.57 35.3478C139.831 33.6925 138.806 31.7669 138.456 29.4896C138.128 27.0375 138.552 25.4755 138.552 25.4755C138.999 23.3433 140.05 21.5489 141.743 20.0188C143.746 18.2085 146.035 17.3281 148.742 17.3281C151.448 17.3281 153.728 18.2085 155.739 20.0188C157.424 21.5489 158.473 23.3433 158.928 25.4775H142.091V29.4916H163.101V29.4896Z" fill="#7D73C3"/>
<path d="M24.8834 7.29888V27.7608C24.8834 30.67 23.8838 33.0824 21.8271 35.1392C19.7704 37.1959 17.3579 38.1954 14.4487 38.1954C11.5395 38.1954 9.12509 37.1959 7.07036 35.1392C5.01364 33.0824 4.01409 30.67 4.01409 27.7608C4.01409 24.8516 5.01364 22.4391 7.07036 20.3824C9.12708 18.3257 11.5395 17.3262 14.4487 17.3262C14.5858 17.3262 14.709 17.3579 22.3696 17.3619V13.3379C14.711 13.3339 14.5819 13.3121 14.4487 13.3121C10.4843 13.3121 7.04452 14.7408 4.22671 17.5587C1.42282 20.3626 0 23.7964 0 27.7608C0 31.7252 1.42282 35.163 4.23069 37.9828C7.04651 40.7867 10.4863 42.2095 14.4507 42.2095C18.4151 42.2095 21.849 40.7867 24.6548 37.9828C27.4727 35.165 28.9014 31.7272 28.9014 27.7608V7.29888H24.8834Z" fill="#7D73C3"/>
<path d="M97.3058 7.29888V27.7588C97.3058 30.668 98.3054 33.0805 100.362 35.1372C102.419 37.1939 104.831 38.1934 107.74 38.1934C110.65 38.1934 113.064 37.1939 115.119 35.1372C117.176 33.0805 118.175 30.668 118.175 27.7588C118.175 24.8496 117.176 22.4372 115.119 20.3804C113.062 18.3237 110.65 17.3242 107.74 17.3242C107.603 17.3242 107.48 17.356 99.8196 17.3599V13.3359C107.478 13.3319 107.607 13.3101 107.74 13.3101C111.705 13.3101 115.145 14.7389 117.963 17.5567C120.768 20.3626 122.191 23.7944 122.191 27.7608C122.191 31.7252 120.768 35.163 117.961 37.9828C115.145 40.7867 111.705 42.2095 107.74 42.2095C103.774 42.2095 100.342 40.7867 97.5364 37.9828C94.7185 35.165 93.2898 31.7272 93.2898 27.7608V7.29888H97.3058Z" fill="#7D73C3"/>
<path d="M254.855 15.7603H250.644V42.3148H254.855V15.7603Z" fill="#7D73C3"/>
<path d="M254.855 8.13946H250.644V12.5251H254.855V8.13946Z" fill="#7D73C3"/>
<path d="M242.059 42.3148H246.093V27.6714C246.093 23.6513 244.659 20.1718 241.831 17.3321C239.013 14.4765 235.563 13.0279 231.581 13.0279C227.599 13.0279 224.145 14.4765 221.315 17.3301C218.497 20.1738 217.067 23.6533 217.067 27.6714C217.067 31.6894 218.496 35.1749 221.315 38.0325C224.143 40.8741 227.597 42.3148 231.579 42.3148C231.702 42.3148 231.821 42.295 238.504 42.291V38.2133C231.818 38.2173 231.706 38.2471 231.579 38.2471C228.656 38.2471 226.234 37.2336 224.167 35.1491C222.102 33.0646 221.097 30.6183 221.097 27.6714C221.097 24.7244 222.102 22.2782 224.167 20.1936C226.234 18.1091 228.658 17.0976 231.579 17.0976C234.5 17.0976 236.925 18.1111 238.991 20.1936C240.458 21.6741 241.37 23.3493 241.779 25.247C241.779 25.251 241.787 25.247 241.787 25.251C241.793 25.2709 241.797 25.2987 241.801 25.3205V25.3245C241.954 26.0021 242.059 27.3355 242.059 27.3355V42.3148Z" fill="#7D73C3"/>
</svg>
