<svg width="484" height="526" viewBox="0 0 484 526" fill="none" xmlns="http://www.w3.org/2000/svg">
<path opacity="0.1" d="M333.548 0V375.237H150.331V143.472H0V294.048C0 357.016 46.0078 409.304 106.137 419.422C116.255 479.551 168.543 525.559 231.51 525.559H252.351C315.318 525.559 367.615 479.551 377.733 419.422C437.871 409.304 483.87 357.016 483.87 294.048V0H333.539H333.548ZM46.0954 294.057V189.576H104.236V371.908C70.6585 361.948 46.1041 330.814 46.1041 294.057H46.0954ZM252.359 479.472H231.519C194.753 479.472 163.62 454.918 153.669 421.341H330.219C320.259 454.918 289.125 479.472 252.359 479.472ZM437.783 294.057C437.783 330.823 413.22 361.956 379.652 371.908V46.0954H437.783V294.057Z" fill="#00B4D8"/>
</svg>
