<svg width="54" height="58" viewBox="0 0 54 58" fill="none" xmlns="http://www.w3.org/2000/svg">
<path d="M36.635 0V41.2138H16.5115V15.7582H0V32.2966C0 39.2126 5.05323 44.9557 11.6575 46.067C12.7687 52.6712 18.5118 57.7244 25.4278 57.7244H27.7168C34.6327 57.7244 40.3768 52.6712 41.4881 46.067C48.0932 44.9557 53.1455 39.2126 53.1455 32.2966V0H36.634H36.635ZM5.06285 32.2976V20.822H11.4487V40.8482C7.76073 39.7543 5.06381 36.3348 5.06381 32.2976H5.06285ZM27.7177 52.6625H25.4288C21.3906 52.6625 17.9711 49.9656 16.8781 46.2777H36.2693C35.1754 49.9656 31.7559 52.6625 27.7177 52.6625ZM48.0836 32.2976C48.0836 36.3357 45.3857 39.7552 41.6988 40.8482V5.06285H48.0836V32.2976Z" fill="#00B4D8"/>
</svg>
