<svg width="35" height="35" viewBox="0 0 35 35" fill="none" xmlns="http://www.w3.org/2000/svg">
<rect width="35" height="35" rx="17.5" fill="url(#paint0_linear_1_688)"/>
<rect x="3.9375" y="3.9375" width="27.125" height="27.125" rx="13.5625" fill="white" fill-opacity="0.03"/>
<rect x="4.04688" y="4.04688" width="26.9062" height="26.9062" rx="13.4531" stroke="white" stroke-opacity="0.18" stroke-width="0.21875"/>
<g filter="url(#filter1_i_1_688)">
<rect x="6.125" y="6.125" width="22.3125" height="22.3125" rx="11.1562" fill="white" fill-opacity="0.12"/>
</g>
<path d="M17.0002 16.3334C17.8842 16.3334 18.7321 16.6846 19.3572 17.3097C19.9823 17.9348 20.3335 18.7827 20.3335 19.6667V23.6667H19.0002V19.6667C19.0002 19.1566 18.8053 18.6657 18.4553 18.2945C18.1053 17.9234 17.6268 17.7 17.1175 17.67L17.0002 17.6667C16.49 17.6667 15.9992 17.8616 15.628 18.2116C15.2568 18.5615 15.0334 19.0401 15.0035 19.5494L15.0002 19.6667V23.6667H13.6668V19.6667C13.6668 18.7827 14.018 17.9348 14.6431 17.3097C15.2683 16.6846 16.1161 16.3334 17.0002 16.3334ZM12.6668 18.3334C12.8535 18.3338 13.0335 18.3547 13.2068 18.396C13.0933 18.7355 13.0258 19.0886 13.0062 19.446L13.0002 19.6667V19.724C12.9235 19.6967 12.8438 19.6788 12.7628 19.6707L12.6668 19.6667C12.4183 19.6667 12.1788 19.7592 11.9948 19.9262C11.8108 20.0932 11.6955 20.3227 11.6715 20.57L11.6668 20.6667V23.6667H10.3335V20.6667C10.3335 20.0479 10.5793 19.4544 11.0169 19.0168C11.4545 18.5792 12.048 18.3334 12.6668 18.3334ZM21.3335 18.3334C21.9523 18.3334 22.5458 18.5792 22.9834 19.0168C23.421 19.4544 23.6668 20.0479 23.6668 20.6667V23.6667H22.3335V20.6667C22.3335 20.4182 22.241 20.1786 22.074 19.9946C21.907 19.8106 21.6775 19.6954 21.4302 19.6714L21.3335 19.6667C21.2162 19.6672 21.1051 19.686 21.0002 19.7234V19.6667C21.0002 19.2227 20.9282 18.796 20.7948 18.3974C20.9668 18.3554 21.1482 18.3334 21.3335 18.3334ZM12.6668 14.3334C13.1089 14.3334 13.5328 14.509 13.8453 14.8215C14.1579 15.1341 14.3335 15.558 14.3335 16C14.3335 16.4421 14.1579 16.866 13.8453 17.1786C13.5328 17.4911 13.1089 17.6667 12.6668 17.6667C12.2248 17.6667 11.8009 17.4911 11.4883 17.1786C11.1758 16.866 11.0002 16.4421 11.0002 16C11.0002 15.558 11.1758 15.1341 11.4883 14.8215C11.8009 14.509 12.2248 14.3334 12.6668 14.3334ZM21.3335 14.3334C21.7755 14.3334 22.1994 14.509 22.512 14.8215C22.8246 15.1341 23.0002 15.558 23.0002 16C23.0002 16.4421 22.8246 16.866 22.512 17.1786C22.1994 17.4911 21.7755 17.6667 21.3335 17.6667C20.8915 17.6667 20.4675 17.4911 20.155 17.1786C19.8424 16.866 19.6668 16.4421 19.6668 16C19.6668 15.558 19.8424 15.1341 20.155 14.8215C20.4675 14.509 20.8915 14.3334 21.3335 14.3334ZM12.6668 15.6667C12.5784 15.6667 12.4936 15.7018 12.4311 15.7643C12.3686 15.8268 12.3335 15.9116 12.3335 16C12.3335 16.0884 12.3686 16.1732 12.4311 16.2357C12.4936 16.2983 12.5784 16.3334 12.6668 16.3334C12.7552 16.3334 12.84 16.2983 12.9025 16.2357C12.965 16.1732 13.0002 16.0884 13.0002 16C13.0002 15.9116 12.965 15.8268 12.9025 15.7643C12.84 15.7018 12.7552 15.6667 12.6668 15.6667ZM21.3335 15.6667C21.2451 15.6667 21.1603 15.7018 21.0978 15.7643C21.0353 15.8268 21.0002 15.9116 21.0002 16C21.0002 16.0884 21.0353 16.1732 21.0978 16.2357C21.1603 16.2983 21.2451 16.3334 21.3335 16.3334C21.4219 16.3334 21.5067 16.2983 21.5692 16.2357C21.6317 16.1732 21.6668 16.0884 21.6668 16C21.6668 15.9116 21.6317 15.8268 21.5692 15.7643C21.5067 15.7018 21.4219 15.6667 21.3335 15.6667ZM17.0002 10.3334C17.7074 10.3334 18.3857 10.6143 18.8858 11.1144C19.3859 11.6145 19.6668 12.2928 19.6668 13C19.6668 13.7073 19.3859 14.3856 18.8858 14.8857C18.3857 15.3858 17.7074 15.6667 17.0002 15.6667C16.2929 15.6667 15.6146 15.3858 15.1145 14.8857C14.6144 14.3856 14.3335 13.7073 14.3335 13C14.3335 12.2928 14.6144 11.6145 15.1145 11.1144C15.6146 10.6143 16.2929 10.3334 17.0002 10.3334ZM17.0002 11.6667C16.6465 11.6667 16.3074 11.8072 16.0574 12.0572C15.8073 12.3073 15.6668 12.6464 15.6668 13C15.6668 13.3537 15.8073 13.6928 16.0574 13.9428C16.3074 14.1929 16.6465 14.3334 17.0002 14.3334C17.3538 14.3334 17.6929 14.1929 17.943 13.9428C18.193 13.6928 18.3335 13.3537 18.3335 13C18.3335 12.6464 18.193 12.3073 17.943 12.0572C17.6929 11.8072 17.3538 11.6667 17.0002 11.6667Z" fill="white"/>
<defs>
<filter id="filter1_i_1_688" x="-168.875" y="-168.875" width="372.312" height="372.312" filterUnits="userSpaceOnUse" color-interpolation-filters="sRGB">
<feFlood flood-opacity="0" result="BackgroundImageFix"/>
<feBlend mode="normal" in="SourceGraphic" in2="BackgroundImageFix" result="shape"/>
<feColorMatrix in="SourceAlpha" type="matrix" values="0 0 0 0 0 0 0 0 0 0 0 0 0 0 0 0 0 0 127 0" result="hardAlpha"/>
<feOffset dy="0.4375"/>
<feGaussianBlur stdDeviation="1.00625"/>
<feComposite in2="hardAlpha" operator="arithmetic" k2="-1" k3="1"/>
<feColorMatrix type="matrix" values="0 0 0 0 1 0 0 0 0 1 0 0 0 0 1 0 0 0 0.47 0"/>
<feBlend mode="normal" in2="shape" result="effect1_innerShadow_1_688"/>
</filter>
<linearGradient id="paint0_linear_1_688" x1="17.5" y1="0" x2="17.5" y2="35" gradientUnits="userSpaceOnUse">
<stop/>
<stop offset="1" stop-color="#7D73C3"/>
</linearGradient>
</defs>
</svg>
