<svg width="35" height="35" viewBox="0 0 35 35" fill="none" xmlns="http://www.w3.org/2000/svg">
<rect width="35" height="35" rx="17.5" fill="url(#paint0_linear_1_698)"/>
<rect x="3.9375" y="3.9375" width="27.125" height="27.125" rx="13.5625" fill="white" fill-opacity="0.03"/>
<rect x="4.04688" y="4.04688" width="26.9062" height="26.9062" rx="13.4531" stroke="white" stroke-opacity="0.18" stroke-width="0.21875"/>
<g filter="url(#filter1_i_1_698)">
<rect x="6.125" y="6.125" width="22.3125" height="22.3125" rx="11.1562" fill="white" fill-opacity="0.12"/>
</g>
<path d="M22 17C21.6441 17.0019 21.2952 17.0996 20.99 17.283L19.5605 15.8535L20.707 14.707C20.8945 14.5195 20.9998 14.2652 20.9998 14C20.9998 13.7349 20.8945 13.4806 20.707 13.293L17.707 10.293C17.5195 10.1056 17.2652 10.0002 17 10.0002C16.7349 10.0002 16.4806 10.1056 16.293 10.293L13.293 13.293C13.1056 13.4806 13.0003 13.7349 13.0003 14C13.0003 14.2652 13.1056 14.5195 13.293 14.707L14.4395 15.8535L13.01 17.283C12.5865 17.0317 12.0858 16.9437 11.6019 17.0354C11.118 17.1272 10.6843 17.3925 10.3821 17.7814C10.08 18.1704 9.93023 18.6562 9.96098 19.1478C9.99173 19.6393 10.2009 20.1027 10.5491 20.451C10.8974 20.7992 11.3608 21.0084 11.8523 21.0391C12.3439 21.0699 12.8297 20.9201 13.2187 20.618C13.6076 20.3158 13.8729 19.8821 13.9646 19.3982C14.0564 18.9143 13.9684 18.4136 13.717 17.99L15.1465 16.5605L16.293 17.707C16.3551 17.7674 16.4246 17.8195 16.5 17.862V20H15V24H19V20H17.5V17.8615C17.5754 17.8192 17.645 17.7673 17.707 17.707L18.8535 16.5605L20.283 17.99C20.0616 18.3699 19.9719 18.8122 20.0279 19.2483C20.0838 19.6844 20.2823 20.0898 20.5925 20.4015C20.9026 20.7131 21.307 20.9135 21.7429 20.9716C22.1787 21.0296 22.6215 20.942 23.0024 20.7224C23.3833 20.5028 23.6809 20.1634 23.8491 19.7572C24.0172 19.3509 24.0464 18.9005 23.932 18.4759C23.8177 18.0514 23.5663 17.6765 23.2169 17.4096C22.8675 17.1427 22.4397 16.9987 22 17ZM13 19C13 19.1978 12.9414 19.3912 12.8315 19.5556C12.7216 19.72 12.5655 19.8482 12.3827 19.9239C12.2 19.9996 11.9989 20.0194 11.805 19.9808C11.611 19.9422 11.4328 19.847 11.2929 19.7071C11.1531 19.5673 11.0578 19.3891 11.0193 19.1951C10.9807 19.0011 11.0005 18.8001 11.0762 18.6173C11.1519 18.4346 11.28 18.2784 11.4445 18.1686C11.6089 18.0587 11.8023 18 12 18C12.2653 18 12.5196 18.1054 12.7072 18.2929C12.8947 18.4805 13 18.7348 13 19ZM18 21V23H16V21H18ZM17 17L14 14L17 11L20 14L17 17ZM22 20C21.8023 20 21.6089 19.9414 21.4445 19.8315C21.28 19.7216 21.1519 19.5654 21.0762 19.3827C21.0005 19.2 20.9807 18.9989 21.0193 18.8049C21.0578 18.611 21.1531 18.4328 21.2929 18.2929C21.4328 18.1531 21.611 18.0578 21.805 18.0192C21.9989 17.9807 22.2 18.0005 22.3827 18.0762C22.5655 18.1518 22.7216 18.28 22.8315 18.4445C22.9414 18.6089 23 18.8022 23 19C23 19.2652 22.8947 19.5196 22.7072 19.7071C22.5196 19.8947 22.2653 20 22 20Z" fill="white"/>
<defs>
<filter id="filter1_i_1_698" x="-168.875" y="-168.875" width="372.312" height="372.312" filterUnits="userSpaceOnUse" color-interpolation-filters="sRGB">
<feFlood flood-opacity="0" result="BackgroundImageFix"/>
<feBlend mode="normal" in="SourceGraphic" in2="BackgroundImageFix" result="shape"/>
<feColorMatrix in="SourceAlpha" type="matrix" values="0 0 0 0 0 0 0 0 0 0 0 0 0 0 0 0 0 0 127 0" result="hardAlpha"/>
<feOffset dy="0.4375"/>
<feGaussianBlur stdDeviation="1.00625"/>
<feComposite in2="hardAlpha" operator="arithmetic" k2="-1" k3="1"/>
<feColorMatrix type="matrix" values="0 0 0 0 1 0 0 0 0 1 0 0 0 0 1 0 0 0 0.47 0"/>
<feBlend mode="normal" in2="shape" result="effect1_innerShadow_1_698"/>
</filter>
<linearGradient id="paint0_linear_1_698" x1="17.5" y1="0" x2="17.5" y2="35" gradientUnits="userSpaceOnUse">
<stop/>
<stop offset="1" stop-color="#7D73C3"/>
</linearGradient>
</defs>
</svg>
